<?xml version="1.0" encoding="UTF-8" standalone="no"?><!DOCTYPE svg PUBLIC "-//W3C//DTD SVG 1.1//EN" "http://www.w3.org/Graphics/SVG/1.1/DTD/svg11.dtd"><svg width="100%" height="100%" viewBox="0 0 24 24" version="1.1" xmlns="http://www.w3.org/2000/svg" xmlns:xlink="http://www.w3.org/1999/xlink" xml:space="preserve" xmlns:serif="http://www.serif.com/" style="fill-rule:evenodd;clip-rule:evenodd;stroke-linejoin:round;stroke-miterlimit:2;"><g id="Layer1"><path d="M2,6.5c3.978,5.949 7.532,1.277 13,7c0,0 -3.195,4.992 -9.75,1.995c-5.586,-3.731 -3.25,-8.995 -3.25,-8.995Z" style="fill:#ffb703;"/></g><path d="M14.915,16.687c-1.507,1.138 -3.383,1.813 -5.415,1.813c-4.967,0 -9,-4.033 -9,-9c0,-4.967 4.033,-9 9,-9c4.967,0 9,4.033 9,9c0,1.853 -0.561,3.575 -1.522,5.007l5.432,5.432c0.585,0.586 0.585,1.536 -0,2.122c-0.586,0.585 -1.536,0.585 -2.122,-0l-5.373,-5.374Zm-5.415,-13.187c-3.311,0 -6,2.689 -6,6c-0,3.311 2.689,6 6,6c3.311,0 6,-2.689 6,-6c-0,-3.311 -2.689,-6 -6,-6Z" style="fill:#1a1a1a;"/></svg>